<?xml version="1.0" encoding="UTF-8" standalone="no"?>
<svg width="500px" height="500px" viewBox="0 0 500 500" version="1.1" xmlns="http://www.w3.org/2000/svg" xmlns:xlink="http://www.w3.org/1999/xlink">
    <!-- Generator: Sketch 39.1 (31720) - http://www.bohemiancoding.com/sketch -->
    <title>KC</title>
    <desc>Created with Sketch.</desc>
    <defs></defs>
    <g id="MLB" stroke="none" stroke-width="1" fill="none" fill-rule="evenodd">
        <g id="KC">
            <g transform="translate(34.000000, 0.000000)">
                <g id="Group-4" transform="translate(0.000000, 250.509165)">
                    <path d="M408.220377,118.995174 C372.754717,129.599088 298.353208,151.111308 233.105912,169.26968 L233.133585,146.312981 C235.397233,144.320597 237.660881,142.355884 239.90239,140.418844 C242.13283,138.515009 244.235975,136.688657 246.300377,134.884442 C249.327799,137.734659 254.24805,140.191933 259.909937,140.645754 C265.051572,141.0553 274.189182,139.942885 282.00956,129.499469 C283.476226,131.220668 285.269434,132.399495 287.383648,132.969539 C295.729811,135.260781 305.387673,127.523687 313.800252,120.09652 C314.851824,119.16674 315.765031,118.358718 316.307421,117.938103 C316.645031,117.666918 316.966038,117.373594 317.303648,117.102409 C319.096855,118.80147 321.183396,120.135261 323.602013,120.982024 C331.931572,123.926326 342.973082,120.959887 350.422642,113.776233 C353.55522,110.771053 356.837233,106.249447 359.753962,101.08585 C363.932579,106.393341 371.985409,109.968565 383.358994,108.71779 C394.062893,107.550031 402.481006,102.878996 407.788679,95.2470557 C413.921006,98.1636855 417.230692,102.895599 416.848805,108.297175 C416.489057,113.255999 413.035472,117.550695 408.220377,118.995174 L408.220377,118.995174 Z M208.421635,211.209377 C207.646792,215.1222 206.589686,215.404454 205.64327,215.653502 C205.222642,215.769725 204.309434,216.007704 202.975597,214.430399 C200.623396,211.696405 199.040503,206.034712 198.669686,199.847251 C202.233962,198.629682 205.792704,197.423183 209.373585,196.216683 C209.301635,203.09041 209.063648,207.966218 208.421635,211.209377 L208.421635,211.209377 Z M143.218616,194.296245 C138.962516,195.242628 134.922264,196.222217 131.04805,197.229478 C140.589686,192.237448 143.218616,184.976313 144.45283,178.489994 C144.45283,178.489994 144.45283,178.478925 144.458365,178.478925 C144.569057,177.947622 144.602264,177.471664 144.602264,177.017843 C144.602264,176.165545 144.414088,175.51802 144.165031,174.942442 C159.180377,171.245462 167.797736,155.976047 169.828931,140.147658 C170.149937,137.58523 170.321509,135.044939 170.321509,132.537855 C170.321509,132.35522 170.304906,132.183654 170.304906,132.001018 C172.391447,131.121048 174.350692,130.063978 176.116226,128.829806 C176.066415,131.021429 176.016604,133.644736 176.016604,133.644736 L176.016604,133.722217 C176.033208,138.011379 176.287799,144.298459 178.164025,149.56721 C181.180377,157.985035 186.919748,159.761578 191.214591,159.767112 C194.27522,159.778181 197.38566,159.080847 200.512704,157.686177 C193.981887,165.041397 187.594969,173.774683 184.440252,182.978394 C184.346164,183.232976 184.274214,183.537368 184.19673,183.819623 C165.428931,188.872532 151.614591,192.414549 143.218616,194.296245 L143.218616,194.296245 Z M133.372579,135.924909 C133.372579,133.052555 133.671447,130.246613 134.180629,127.839148 C134.927799,128.387054 135.719245,128.929425 136.582642,129.416453 C141.796226,132.40503 147.541132,134.181573 153.418868,134.613256 C153.391195,141.686222 151.631195,147.973302 148.681258,151.150049 C147.16478,152.788232 145.388176,153.585186 143.290566,153.59072 C140.312956,153.59072 138.126792,152.312273 136.427673,149.561675 C134.252579,146.052865 133.372579,140.894802 133.372579,135.924909 L133.372579,135.924909 Z M142.139371,113.438635 C142.360755,112.946073 143.462138,112.304082 145.094843,112.92947 C146.782893,113.582529 148.376855,115.24285 149.721761,117.711193 C146.982138,117.218631 145.100377,116.532365 144.641006,116.272248 C142.814591,115.226246 142.095094,114.180244 142.095094,113.637873 C142.095094,113.565926 142.100629,113.493979 142.139371,113.438635 L142.139371,113.438635 Z M209.434465,170.033428 C209.434465,171.904056 209.428931,173.874303 209.428931,175.822412 C207.724277,176.292836 206.047296,176.752192 204.375849,177.217081 C205.809308,174.887098 207.491824,172.496237 209.434465,170.033428 L209.434465,170.033428 Z M267.59195,81.1398654 C269.501384,77.4650226 272.18566,75.5556539 274.980629,75.9153901 C276.79044,76.1367661 278.351195,77.3211281 278.838239,78.7766758 L278.838239,81.4996015 C278.838239,87.5819091 278.75522,93.2491366 278.699874,97.5604357 C278.655597,100.122864 278.633459,102.198264 278.633459,103.543124 L278.633459,104.057823 C278.633459,109.149473 276.109686,115.231781 272.611824,118.546887 C271.51044,119.587355 269.833459,120.821527 268.084528,120.727442 C267.674969,120.694235 266.43522,120.627823 265.073711,118.259099 C261.133082,111.313424 261.520503,92.8340565 267.59195,81.1398654 L267.59195,81.1398654 Z M386.236981,48.4481537 C386.214843,48.8743027 386.214843,49.2893828 386.214843,49.7266005 C386.214843,54.1485876 387.022893,59.1848933 387.869686,64.3650934 C388.439748,67.8240946 389.009811,71.3771806 389.347421,74.7531657 C385.251824,74.4764456 380.868428,74.6535464 375.632704,75.2955371 C373.828428,75.5113787 372.129308,75.8655804 370.518742,76.3194014 C374.498113,67.0050031 380.259623,54.8514567 386.236981,48.4481537 L386.236981,48.4481537 Z M381.161761,89.7569291 C383.779623,89.397193 385.799748,89.1426105 387.731321,89.0983353 C386.281258,91.7825201 384.034214,93.4096343 380.785409,94.0571593 C376.595723,94.920526 374.61434,94.1069689 374.149434,93.5590631 C374.105157,93.5147879 374.022138,93.4207031 374.022138,93.2380678 C374.022138,93.1218454 374.055346,92.9890197 374.127296,92.8174533 C374.570063,91.6773665 376.280252,90.3823165 379.108428,90.017046 L381.161761,89.7569291 L381.161761,89.7569291 Z M71.5179874,129.53821 C66.7969811,128.431329 61.6885535,128.414726 56.0377358,129.482865 C56.0377358,123.002081 56.2591195,117.406801 56.6908176,112.475649 C57.9416352,98.3297175 61.0465409,89.0208536 66.5091824,83.1709909 C67.6161006,81.9810945 67.7821384,80.1768795 66.9021384,78.8043478 C66.7028931,78.5054901 66.4593711,78.2343044 66.1992453,78.0184628 C71.1637736,78.2509076 75.9622642,80.2266891 79.9028931,83.7354999 C85.1828931,88.4286726 88.4095597,95.2027805 88.7471698,102.320021 C89.3006289,113.792836 82.1831447,124.595989 71.5179874,129.53821 L71.5179874,129.53821 Z M333.492327,23.3219694 C333.492327,22.2206234 333.697107,21.6118392 333.824403,21.3461879 C334.826164,21.6173736 337.532579,23.9030816 339.27044,30.0960772 C340.382893,34.0255025 340.914214,38.2925263 340.914214,42.7698574 C340.914214,52.5546799 338.335094,63.3467635 333.503396,73.8123174 C333.52,64.1215797 333.531069,52.7041087 333.531069,43.1240592 C333.531069,33.2894271 333.514465,25.4250421 333.492327,23.4381918 L333.492327,23.3219694 L333.492327,23.3219694 Z M425.538113,91.5777473 C422.372327,87.194501 418.116226,83.7354999 413.173836,81.3114319 C414.059371,75.5556539 413.716226,69.3239175 411.983899,63.036837 C405.558239,39.6816612 411.668428,34.2081378 413.666415,32.4149916 C414.668176,31.5128841 415.055597,30.1292836 414.668176,28.86744 C414.280755,27.5889932 413.168302,26.6592137 411.845535,26.4876472 C396.769308,24.5118658 384.515723,29.1995041 374.404025,40.8328168 C365.94717,50.5899672 360.246541,63.8669973 355.210063,75.5999292 C349.526038,88.8492872 344.15195,101.36257 336.779874,103.875188 C336.165535,104.102099 335.567799,104.002479 334.992201,103.631674 C334.239497,103.133578 333.658365,102.209333 333.353962,101.107987 C343.460126,88.6777207 350.455849,74.1388471 353.588428,58.946914 C354.789434,53.1634641 355.381635,47.4685646 355.381635,42.033782 C355.381635,33.9148145 354.064403,26.3769592 351.429937,19.9625874 C346.85283,8.76649252 338.716981,2.06433189 328.538868,1.07920836 C324.520755,0.697334632 320.552453,2.08646949 317.375597,5.00309927 C312.997736,9.0100062 310.634465,15.3302931 310.71195,22.8017356 C310.71195,23.4105198 310.684277,86.9620561 310.734088,93.116311 L310.745157,96.3207297 C310.750692,100.360843 310.756226,102.026698 310.933333,103.343886 C310.966541,103.570796 311.016352,103.7645 311.055094,103.991411 C310.158491,104.799433 309.300629,105.635128 308.381887,106.40441 C304.856352,109.376384 303.090818,110.284026 302.315975,110.577349 C302.100126,110.023909 301.834465,108.9447 301.56327,106.747543 C301.56327,106.277119 301.590943,58.9358452 301.590943,58.9358452 C301.590943,57.8234304 301.081761,56.7774285 300.21283,56.1133003 C299.327296,55.4381032 298.192704,55.200124 297.135597,55.4713097 L280.764277,59.6608519 C279.812327,59.9098999 279.03195,60.5352873 278.561509,61.3377756 C276.109686,60.7345258 273.60805,60.640441 271.897862,60.6847162 C264.348679,60.8728859 257.153711,65.0236872 251.121006,72.6832994 C243.14566,82.7946516 238.507673,97.4608164 238.507673,111.158461 C238.507673,114.373948 238.773333,117.511954 239.310189,120.539272 C237.566792,122.432038 235.447044,124.490835 233.139119,126.649252 L233.188931,77.7694147 C233.188931,76.6569999 232.663145,75.5999292 231.766541,74.9247321 C230.886541,74.2440007 229.729811,74.028159 228.656101,74.3270167 L212.063396,78.9482423 C210.535849,79.3688568 209.462138,80.7745949 209.462138,82.374037 C209.462138,82.374037 209.290566,125.459355 209.290566,125.475959 C209.290566,125.592181 209.246289,128.807668 209.23522,129.62676 C207.40327,135.902772 202.693333,138.819401 201.193459,138.775126 C200.595723,138.310236 199.704654,135.753343 199.704654,133.340344 C199.704654,133.246259 199.704654,133.163243 199.710189,133.069158 L199.710189,132.95847 L199.743396,86.9177809 C199.743396,85.8219694 199.234214,84.7759674 198.359748,84.1007704 C197.485283,83.4145046 196.345157,83.1875941 195.28805,83.4532454 L179.525535,87.4546179 C177.920503,87.8641636 176.80805,89.3363145 176.841258,90.9855663 C177.090314,103.056097 173.935597,111.16953 167.426918,115.220712 C167.094843,114.31307 166.746164,113.416497 166.342138,112.547596 C162.318491,103.493314 155.444528,97.7652085 146.998742,96.4148145 C141.702138,95.5625166 136.649057,96.7413442 132.708428,99.713318 C123.908428,102.823652 116.896101,110.444523 112.949937,121.275348 C110.664151,127.523687 109.551698,134.44169 109.551698,141.0553 C109.551698,149.29049 111.284025,157.066324 114.687799,162.561985 C120.941887,172.955592 129.315723,175.2413 133.748931,175.65638 C134.02566,175.689586 134.274717,175.678518 134.545912,175.695121 C130.721509,178.578544 125.884277,179.81825 121.296101,179.010228 C114.499623,177.809262 108.466918,172.385549 103.84,163.30913 C99.4787421,154.741875 94.6193711,146.180156 88.4593711,139.738112 C105.218113,131.652351 116.104654,116.122819 115.136101,99.74099 C114.588176,90.4155229 110.160503,81.6490304 102.688805,75.0575578 C92.8815094,66.4128221 78.5081761,62.0351102 63.2216352,63.0589746 C40.1202516,64.5809351 25.3484277,73.7569733 17.0188679,81.1952094 C7.27245283,89.8952891 0.935345912,101.047109 0.0885534591,111.020101 C0.0332075472,111.734039 0,112.425839 0,113.117639 C0,120.605685 3.60855346,126.01833 9.71874214,127.490481 C15.3695597,128.851944 20.6827673,127.938767 25.0827673,124.867174 C31.7242767,120.240414 34.8845283,111.91114 35.6261635,105.646197 C35.7922013,104.162977 35.0228931,102.729567 33.6890566,102.043301 C32.3496855,101.36257 30.7391195,101.595015 29.6377358,102.60781 C28.3592453,103.81431 26.7154717,104.362216 26.1454088,104.312406 C26.0513208,104.124236 25.8244025,103.543124 25.8244025,102.24254 C25.8244025,101.711237 25.8576101,101.074781 25.9627673,100.29443 C26.4719497,96.2100416 30.7114465,91.0741167 37.0374843,86.8790401 C43.5572327,82.5788099 51.5491824,79.6345081 59.8621384,78.4612149 C54.5710692,80.7192509 50.0050314,84.0509608 46.2581132,88.406535 C46.2415094,88.4286726 46.2304403,88.4397414 46.2138365,88.4508102 C34.4472956,102.574604 33.5230189,133.268396 32.7647799,157.94076 C32.4327044,168.954219 32.1559748,178.473391 30.9715723,184.151687 C30.9605031,184.184893 30.949434,184.229169 30.9383648,184.273444 C30.1413836,188.889135 26.8815094,191.894315 24.2249057,192.348136 C22.2877987,192.685735 20.6938365,191.783627 19.4430189,189.62521 C18.8286792,188.551536 17.7051572,187.881874 16.476478,187.843133 C15.2477987,187.798858 14.08,188.37997 13.3992453,189.414903 C7.80930818,197.666696 8.01408805,206.864872 13.9084277,213.417604 C20.4447799,220.673205 31.7685535,222.42761 40.8342138,217.596077 C48.2893082,213.650049 60.4598742,202.929912 58.323522,175.827947 C57.3383648,163.30913 56.6686792,152.611131 56.32,143.363145 C57.2055346,143.36868 58.1298113,143.479368 59.0596226,143.761622 C62.2309434,144.680333 64.9650314,147.237227 67.1844025,151.371425 C67.9758491,152.838041 68.9886792,155.173559 70.1675472,157.863278 C76.0563522,171.228859 85.8913208,193.626583 103.812327,200.096299 C107.520503,201.441158 111.372579,201.966926 115.340881,201.762154 C101.880755,206.128797 91.4037736,210.932657 83.6553459,216.295493 C72.2596226,224.154343 66.2158491,233.34145 64.6108176,245.18507 C64.4060377,246.662756 65.2085535,248.107235 66.5700629,248.738156 C67.9315723,249.369078 69.5366038,249.020411 70.5328302,247.907996 C78.4306918,239.058488 87.6513208,234.514744 97.9290566,234.376384 C105.572327,234.276764 112.473962,236.750642 116.076981,238.914593 C116.896101,239.407155 117.903396,239.534446 118.827673,239.252192 C119.75195,238.958868 120.510189,238.300275 120.930818,237.425839 C122.569057,233.85615 130.815597,223.091738 148.92478,216.14053 C159.130566,212.227707 170.094591,208.226335 182.071447,203.986983 C182.741132,212.509962 185.309182,220.894581 190.268176,226.744443 C195.210566,232.550031 201.769057,234.935358 209.229686,233.662446 C225.944151,230.817763 233.094843,217.330426 233.094843,188.60688 L233.094843,188.446383 C263.402264,178.66156 293.659874,169.50766 321.388176,161.117506 C355.276478,150.884397 387.305157,141.199194 412.775346,132.388426 C424.259623,128.42026 431.144654,119.548614 431.227673,108.662446 L431.227673,108.490879 C431.227673,102.652085 429.218616,96.6527938 425.538113,91.5777473 L425.538113,91.5777473 Z" id="Fill-1" fill="#FFFFFF"></path>
                    <path d="M128.917233,194.334986 C137.385157,190.117772 139.759497,184.002258 140.960503,177.809262 C141.41434,175.479279 140.014088,175.351988 138.447799,177.095325 C129.520503,185.424599 111.997987,187.190073 100.652075,164.936244 C94.796478,153.424688 89.0515723,144.276322 81.9230189,138.614629 C100.126289,132.006553 112.540377,116.482556 111.577358,99.9623661 C110.381887,79.9278314 89.9592453,64.8521208 63.4596226,66.6231294 C8.57308176,70.2426282 -7.27245283,119.731249 10.5544654,124.020411 C24.125283,127.285708 30.9826415,114.456964 32.0784906,105.225582 C28.6802516,108.402329 21.0591195,110.759984 22.4150943,99.8627468 C23.6991195,89.4857434 41.1994969,76.1589037 63.4319497,74.4764456 C78.9509434,73.3695652 91.5753459,86.8070929 92.3225157,102.14292 C92.9589937,115.65793 84.3194969,128.126937 71.7061635,133.351412 C66.2545912,131.857124 59.989434,131.973346 52.5177358,134.010006 C52.1192453,105.701541 55.3625157,89.8786859 63.8913208,80.7413885 C58.9489308,82.4183122 53.5416352,85.417958 48.9755975,90.7365182 C32.8588679,110.046046 38.3879245,166.059727 34.4638994,184.887762 C32.6872956,195.037855 21.5406289,200.400691 16.354717,191.412822 C4.93132075,208.314885 24.0920755,222.471885 39.1683019,214.441468 C46.3300629,210.639334 56.6908176,200.539051 54.7647799,176.099132 C53.6855346,162.434694 52.9605031,150.568937 52.6450314,140.214071 C57.2442767,139.157 64.8155975,139.394979 70.3335849,149.683432 C76.5821384,161.333348 92.0513208,212.742407 128.917233,194.334986" id="Fill-3" fill="#212F57"></path>
                </g>
                <path d="M409.194465,372.769636 C375.162264,382.941867 297.196478,405.516692 229.536101,424.317055 L229.563774,395.189498 C235.518994,389.931816 241.501887,384.917648 246.815094,380.169131 C248.802013,385.769946 269.296604,396.805543 282.27522,372.996547 C288.252579,391.564465 309.256352,369.377048 314.121258,365.624723 C315.333333,364.694944 316.467925,363.731958 317.60805,362.768972 C324.44327,372.758567 339.469686,370.09652 348.07044,361.822589 C352.553459,357.505756 357.01434,350.211414 359.997484,343.54246 C360.722516,350.665235 368.681258,357.406137 383.00478,355.839901 C394.632956,354.566988 402.314969,348.988311 406.482516,341.411715 C407.268428,341.760383 408.104151,342.136722 408.973082,342.535199 C425.969811,350.355309 421.962767,368.950899 409.194465,372.769636 L409.194465,372.769636 Z M206.53434,469.616134 C199.472201,471.464624 195.144151,459.908793 195.050063,447.993226 C201.005283,445.951032 206.982642,443.925441 212.976604,441.93859 C212.954465,462.128088 212.118742,468.149517 206.53434,469.616134 L206.53434,469.616134 Z M213.026415,410.94594 C213.004277,417.410121 212.998742,423.713805 212.993208,428.89954 C207.746415,430.338484 202.582642,431.755291 197.557233,433.122288 C197.645786,432.911981 197.706667,432.696139 197.79522,432.491366 C201.066164,425.05313 206.556478,417.852873 213.026415,410.94594 L213.026415,410.94594 Z M264.426164,329.994244 C270.193208,318.8867 280.92478,322.417648 282.419119,328.743469 C282.485535,340.238422 282.175597,350.903214 282.20327,354.445232 C282.264151,363.842646 275.340377,375.221376 267.868679,374.789693 C256.915723,374.164305 256.246038,345.745152 264.426164,329.994244 L264.426164,329.994244 Z M342.563522,279.680997 C347.26239,296.367219 342.497107,318.277916 330.088553,337.521031 C330.110692,318.964181 330.154969,278.856371 330.088553,273.991632 C329.972327,265.274949 338.844277,266.536793 342.563522,279.680997 L342.563522,279.680997 Z M392.319497,291.275569 C386.214843,297.180776 392.20327,314.010892 392.967044,327.797087 C392.994717,328.239839 392.978113,328.665988 392.989182,329.097671 C388.168553,328.372664 383.00478,328.333924 376.042264,329.186222 C370.463396,329.861419 366.456352,331.770787 363.794214,334.244665 C370.496604,317.49203 380.813082,293.157266 392.319497,291.275569 L392.319497,291.275569 Z M384.399497,336.425219 C384.449308,336.419685 384.504654,336.408616 384.56,336.403082 C385.379119,336.320066 386.170566,336.253653 386.950943,336.220446 C386.989686,336.220446 387.033962,336.214912 387.078239,336.214912 C387.858616,336.181705 388.633459,336.181705 389.419371,336.220446 L389.518994,336.220446 C390.31044,336.253653 391.124025,336.342203 391.965283,336.46396 C391.998491,336.469494 392.020629,336.480563 392.053836,336.480563 C392.147925,336.491632 392.269686,336.524838 392.363774,336.546976 C391.107421,342.291685 387.886289,346.59745 381.466164,347.909103 C367.23673,350.820198 367.751447,338.533826 378.682264,337.139157 C380.862893,336.862437 382.700377,336.60232 384.399497,336.425219 L384.399497,336.425219 Z M143.301635,407.658505 C127.699623,407.691712 127.926541,380.977154 132.558994,371.834322 C133.953711,373.660675 135.824403,375.376339 138.353711,376.826353 C144.403019,380.301957 150.834214,381.763039 156.861384,381.668954 C157.752453,394.281856 153.695597,407.625299 143.301635,407.658505 L143.301635,407.658505 Z M146.373333,360.112459 C150.441258,361.667626 153.441006,366.39954 155.189937,372.310281 C149.284528,372.238333 144.286792,370.694235 142.864403,369.880678 C134.296855,364.977198 139.975346,357.655185 146.373333,360.112459 L146.373333,360.112459 Z M409.316226,333.82405 C410.738616,327.747277 410.500629,321.034048 408.696352,314.453644 C402.514214,291.967369 407.152201,284.186 411.397233,280.372797 C361.264906,273.797928 361.093333,349.69118 337.886792,357.616444 C333.957233,358.955769 330.154969,355.596387 329.784151,350.565616 C362.305409,311.730718 356.715472,257.731559 328.206792,254.986496 C321.144654,254.30023 313.999497,261.002391 314.121258,273.277694 C314.121258,273.277694 314.08805,337.388205 314.132327,343.603338 C314.171069,349.82954 314.132327,352.048836 314.314969,353.421367 C314.43673,354.31794 314.63044,355.125963 314.813082,355.93952 C313.473711,357.190295 312.12327,358.446604 310.700881,359.642035 C300.589182,368.153945 298.912201,365.159834 297.987925,357.483618 L298.026667,309.44501 L281.655346,313.629018 C281.655346,313.629018 281.550189,315.167582 281.572327,317.198707 C279.413836,315.167582 275.202013,314.680554 271.997484,314.76357 C252.659623,315.245063 237.893333,347.505092 243.134591,372.149783 C239.752956,376.012796 234.96,380.423714 229.569308,385.244178 L229.624654,328.27858 L213.026415,332.894271 L212.871447,376.001727 C212.849308,376.754405 212.821635,378.409192 212.799497,380.694899 C210.613333,388.88028 204.054843,393.329939 200.601258,392.81524 C197.081258,392.295006 196.068428,386.268042 196.145912,383.467635 L196.162516,337.426946 L180.411069,341.422784 C180.792956,359.819136 173.503899,367.749934 165.224151,370.738511 C162.556478,360.317232 156.335597,352.037767 146.450818,350.454928 C141.580377,349.674577 137.429434,350.969627 134.451824,353.404764 C112.678742,360.466661 108.472453,396.301913 117.720755,411.206057 C123.161258,420.265873 130.234465,422.247189 134.092075,422.623528 C156.806038,424.82622 167.825409,400.972948 166.635472,380.04184 C172.34717,378.187815 177.106918,374.867174 179.896352,370.583547 L179.59195,384.214779 C179.636226,393.335473 180.831698,406.684451 191.22566,406.712123 C199.129057,406.723191 206.733585,400.95081 213.076226,393.739485 C213.070692,395.859161 213.059623,398.08399 213.059623,400.364164 C202.206289,410.824183 191.994969,422.457496 187.805283,434.649783 C187.534088,435.430134 187.290566,436.25476 187.069182,437.073851 C168.766289,442.027141 153.363522,446.017444 143.971321,448.120517 C86.9262893,460.921589 70.6213836,476.628221 67.9924528,496.148056 C87.8837736,473.86102 111.228679,482.527893 117.831447,486.49606 C119.425409,483.048127 127.683019,471.149163 147.712704,463.461879 C159.850063,458.801913 172.535346,454.219428 185.453082,449.70889 C185.408805,466.234614 192.902642,483.335916 208.63195,480.657266 C220.752704,478.592934 229.68,470.507173 229.513962,438.308023 L229.525031,436.509342 C297.246289,414.593111 364.795975,395.881298 411.668428,379.67657 C435.981887,371.264279 430.86239,342.291685 409.316226,333.82405 L409.316226,333.82405 Z" id="Fill-5" fill="#212F57"></path>
                <path d="M307.551698,16.4039671 C307.551698,7.91419463 300.644528,1.00726114 292.148931,1.00726114 C283.653333,1.00726114 276.746164,7.91419463 276.746164,16.4039671 C276.746164,21.9549721 279.723774,26.7809705 284.134843,29.487293 L284.134843,34.0199681 C284.134843,45.4097671 274.881006,54.663287 263.524025,54.663287 C252.205786,54.663287 242.985157,45.4042327 242.985157,34.0088993 L242.985157,29.4928274 C247.407296,26.7809705 250.379371,21.9549721 250.379371,16.4039671 C250.379371,7.91419463 243.472201,1.00726114 234.982138,1.00726114 C226.475472,1.00726114 219.573836,7.91419463 219.573836,16.4039671 C219.573836,21.8608873 222.43522,26.6260073 226.724528,29.3655362 L226.724528,34.0088993 C226.724528,45.4042327 217.481761,54.663287 206.119245,54.663287 C194.795472,54.663287 185.585912,45.3820951 185.585912,33.9646241 L185.585912,29.570309 C190.08,26.8750553 193.112956,22.0103161 193.112956,16.4039671 C193.112956,7.91419463 186.205786,1.00726114 177.715723,1.00726114 C169.214591,1.00726114 162.312956,7.91419463 162.312956,16.4039671 C162.312956,21.8276809 165.135597,26.5761976 169.380629,29.321261 L169.281006,29.321261 L169.281006,34.0255025 C169.281006,45.4097671 160.032704,54.663287 148.664654,54.663287 C137.335346,54.663287 128.103648,45.3931639 128.103648,33.9812273 L128.103648,29.321261 C132.359748,26.5872664 135.193459,21.8276809 135.193459,16.4039671 C135.193459,7.91419463 128.280755,1.00726114 119.790692,1.00726114 C111.295094,1.00726114 104.387925,7.91419463 104.387925,16.4039671 C104.387925,21.7446648 107.116478,26.4489064 111.256352,29.2105729 L111.256352,88.5393607 L111.394717,88.5393607 L111.394717,261.129682 L205.831447,316.396219 L300.262642,261.129682 L300.262642,88.5393607 L300.334591,88.5393607 L300.334591,29.3987426 C304.651572,26.6702825 307.551698,21.8830249 307.551698,16.4039671" id="Fill-8" fill="#FFFFFF"></path>
                <polyline id="Fill-9" fill="#212F57" points="116.148931 88.5947047 116.148931 258.406756 205.831447 310.883955 295.513962 258.406756 295.513962 88.5947047 116.148931 88.5947047"></polyline>
                <path d="M292.148931,27.0521562 C298.032201,27.0521562 302.797484,22.2815018 302.797484,16.4039671 C302.797484,10.5208979 298.032201,5.75024351 292.148931,5.75024351 C286.271195,5.75024351 281.500377,10.5208979 281.500377,16.4039671 C281.500377,22.2815018 286.271195,27.0521562 292.148931,27.0521562" id="Fill-10" fill="#AD8F60"></path>
                <path d="M291.086289,34.0199681 L288.894591,34.0199681 C288.894591,48.0330736 277.532075,59.428407 263.524025,59.428407 C249.515975,59.428407 238.230943,48.0220048 238.230943,34.0088993 L231.484277,34.0088993 C231.484277,48.0220048 220.13283,59.428407 206.119245,59.428407 C192.111195,59.428407 180.837233,47.9721952 180.837233,33.9646241 L174.029686,34.0255025 C174.029686,48.038608 162.683774,59.428407 148.664654,59.428407 C134.656604,59.428407 123.354969,47.983264 123.354969,33.9812273 L116.010566,33.9037457 L116.010566,83.7853095 L295.585912,83.7853095 L295.585912,34.0199681 L288.894591,34.0199681" id="Fill-11" fill="#AD8F60"></path>
                <path d="M119.790692,27.0521562 C125.673962,27.0521562 130.439245,22.2815018 130.439245,16.4039671 C130.439245,10.5208979 125.673962,5.75024351 119.790692,5.75024351 C113.907421,5.75024351 109.142138,10.5208979 109.142138,16.4039671 C109.142138,22.2815018 113.907421,27.0521562 119.790692,27.0521562" id="Fill-12" fill="#AD8F60"></path>
                <path d="M177.715723,27.0521562 C183.593459,27.0521562 188.364277,22.2815018 188.364277,16.4039671 C188.364277,10.5208979 183.593459,5.75024351 177.715723,5.75024351 C171.826918,5.75024351 167.061635,10.5208979 167.061635,16.4039671 C167.061635,22.2815018 171.826918,27.0521562 177.715723,27.0521562" id="Fill-13" fill="#AD8F60"></path>
                <path d="M234.982138,27.0521562 C240.85434,27.0521562 245.630692,22.2815018 245.630692,16.4039671 C245.630692,10.5208979 240.85434,5.75024351 234.982138,5.75024351 C229.104403,5.75024351 224.32805,10.5208979 224.32805,16.4039671 C224.32805,22.2815018 229.104403,27.0521562 234.982138,27.0521562" id="Fill-14" fill="#AD8F60"></path>
                <path d="M180.333585,121.557602 L180.333585,125.044275 C182.049308,125.044275 183.753962,125.071947 185.20956,125.298858 C185.430943,122.587001 183.24478,121.767909 180.333585,121.557602" id="Fill-15" fill="#1A1918"></path>
                <path d="M134.966541,121.601877 L134.966541,125.027672 L136.903648,125.083016 C139.272453,125.060878 141.729811,125.592181 143.838491,126.831887 C141.81283,123.466971 138.409057,121.928407 134.966541,121.601877" id="Fill-16" fill="#1A1918"></path>
                <path d="M158.53283,134.275657 L158.516226,164.515629 L161.17283,163.021341 C161.455094,162.622864 161.770566,162.174577 162.097107,161.715222 L162.108176,137.856415 C162.108176,128.868547 167.698113,125.536837 173.177358,125.127291 L173.177358,119.991366 L169.590943,119.991366 L169.590943,121.540999 C164.117233,121.950545 158.53283,125.287789 158.53283,134.275657" id="Fill-17" fill="#1A1918"></path>
                <path d="M209.179874,199.199725 C205.194969,192.45329 199.782138,180.919596 191.214591,173.215709 C200.418616,183.598247 205.438491,197.716506 209.301635,200.527982 C209.240755,200.090764 209.229686,199.636943 209.179874,199.199725" id="Fill-18" fill="#1A1918"></path>
                <path d="M208.22239,121.463517 C204.541887,121.463517 199.970314,121.463517 193.898868,128.979235 C186.111698,138.581422 170.664654,161.881254 170.664654,161.881254 C172.529811,162.019614 174.267673,162.407022 175.955723,162.899584 C180.178616,156.601435 191.258868,140.230674 197.474214,132.548924 C203.551195,125.044275 208.117233,125.044275 211.80327,125.044275 L214.183145,125.044275 L214.183145,119.963694 L210.607799,119.963694 L210.607799,121.463517 L208.22239,121.463517" id="Fill-19" fill="#1A1918"></path>
                <path d="M152.118239,219.715753 L134.966541,219.715753 L134.966541,223.296511 L176.426164,223.296511 L176.426164,218.260205 L174.494591,218.199327 C173.952201,218.204861 173.398742,218.155052 172.845283,218.105242 L172.845283,219.715753 L152.118239,219.715753" id="Fill-20" fill="#1A1918"></path>
                <path d="M283.703145,229.284734 C282.579623,227.297884 281.284528,226.102453 279.978365,225.488134 C280.028176,225.565616 280.083522,225.62096 280.127799,225.703976 C282.939371,230.668334 277.891824,254.200611 251.624654,254.200611 C240.051824,254.200611 230.803522,249.607057 223.138113,242.611574 C231.462138,251.57177 241.762013,257.781369 255.211069,257.781369 C281.46717,257.781369 286.514717,234.249092 283.703145,229.284734" id="Fill-21" fill="#1A1918"></path>
                <path d="M158.577107,174.239573 L158.416604,184.184893 L158.516226,201.856238 C158.516226,207.639688 160.851824,211.04888 163.967799,212.869698 C162.833208,210.988001 162.097107,208.591605 162.097107,205.431462 L162.003019,187.760117 L162.163522,177.825866 C165.312704,174.754273 173.033459,169.45785 182.77434,177.626627 C171.367547,164.615248 162.113711,170.80271 158.577107,174.239573" id="Fill-22" fill="#1A1918"></path>
                <path d="M276.32,183.526299 C276.530314,184.937572 276.65761,186.177278 276.718491,187.101523 L281.904403,187.101523 L281.904403,148.897547 L278.323522,148.897547 L278.323522,183.526299 L276.32,183.526299" id="Fill-23" fill="#1A1918"></path>
                <path d="M248.226415,154.371071 C226.663648,153.712477 222.617862,178.656026 222.318994,195.668777 C221.89283,220.778358 228.617358,235.527539 237.350943,242.927034 C230.432704,234.730585 225.534591,220.800496 225.905409,199.249535 C226.209811,182.231249 230.238994,157.293235 251.807296,157.946294 C257.834465,158.134464 262.389434,160.077039 265.865157,162.860843 C262.151447,158.223014 256.605786,154.631187 248.226415,154.371071" id="Fill-24" fill="#1A1918"></path>
                <path d="M272.611824,231.985522 C272.827673,232.599841 273.198491,233.186487 273.713208,233.745462 C273.696604,232.865492 273.303648,232.356327 272.611824,231.985522" id="Fill-25" fill="#1A1918"></path>
                <path d="M280.127799,225.703976 C280.083522,225.62096 280.028176,225.565616 279.978365,225.488134 C273.807296,215.100062 262.992704,227.286815 272.46239,231.885903 C272.517736,231.913575 272.556478,231.95785 272.611824,231.985522 C273.303648,232.356327 273.696604,232.865492 273.713208,233.745462 C273.718742,234.370849 273.585912,235.140131 273.121006,236.30789 C268.289308,248.522315 250.528805,254.089923 237.350943,242.927034 C228.617358,235.527539 221.89283,220.778358 222.318994,195.668777 C222.617862,178.656026 226.663648,153.712477 248.226415,154.371071 C256.605786,154.631187 262.151447,158.223014 265.865157,162.860843 C271.538113,169.955946 272.87195,179.519393 273.132075,183.526299 L278.323522,183.526299 L278.323522,145.316789 L272.324025,145.316789 C271.239245,149.733242 270.514214,153.712477 262.483522,151.493182 C254.447296,149.29049 250.960503,149.633623 248.154465,149.511866 C223.459119,148.427123 206.528805,176.243027 209.179874,199.199725 C209.229686,199.636943 209.240755,200.090764 209.301635,200.527982 C205.438491,197.716506 200.418616,183.598247 191.214591,173.215709 C187.074717,168.544674 182.071447,164.676127 175.955723,162.899584 C174.267673,162.407022 172.529811,162.019614 170.664654,161.881254 C170.664654,161.881254 186.111698,138.581422 193.898868,128.979235 C199.970314,121.463517 204.541887,121.463517 208.22239,121.463517 L210.607799,121.463517 L210.607799,116.382936 L176.752704,116.382936 L176.752704,121.463517 C177.975849,121.463517 179.198994,121.474586 180.333585,121.557602 C183.24478,121.767909 185.430943,122.587001 185.20956,125.298858 C185.132075,126.228637 184.849811,127.318914 184.119245,128.757859 C181.28,134.375277 168.140881,153.17564 162.097107,161.715222 C161.770566,162.174577 161.455094,162.622864 161.17283,163.021341 L158.516226,164.515629 L158.53283,134.275657 C158.53283,125.287789 164.117233,121.950545 169.590943,121.540999 L169.590943,116.405074 L131.38566,116.405074 L131.38566,121.446914 L133.322767,121.502258 C133.865157,121.496724 134.418616,121.552068 134.966541,121.601877 C138.409057,121.928407 141.81283,123.466971 143.838491,126.831887 C144.973082,128.713584 145.714717,131.10998 145.714717,134.275657 L145.714717,201.856238 C145.714717,211.569114 139.17283,214.684982 133.322767,214.618569 L131.38566,214.684982 L131.38566,219.715753 L172.845283,219.715753 L172.845283,214.684982 L170.913711,214.618569 C168.544906,214.646241 166.082013,214.114938 163.967799,212.869698 C160.851824,211.04888 158.516226,207.639688 158.516226,201.856238 L158.416604,184.184893 L158.577107,174.239573 C162.113711,170.80271 171.367547,164.615248 182.77434,177.626627 C183.084277,177.980829 183.388679,178.285221 183.698616,178.667095 C194.579623,191.949659 203.789182,224.951297 223.138113,242.611574 C230.803522,249.607057 240.051824,254.200611 251.624654,254.200611 C277.891824,254.200611 282.939371,230.668334 280.127799,225.703976" id="Fill-26" fill="#FFFFFF"></path>
            </g>
        </g>
    </g>
</svg>